<?xml version="1.0" encoding="UTF-8"?>
<svg id="Layer_1" xmlns="http://www.w3.org/2000/svg" version="1.1" viewBox="0 0 175 175">
  <!-- Generator: Adobe Illustrator 29.8.2, SVG Export Plug-In . SVG Version: 2.1.1 Build 3)  -->
  <defs>
    <style>
      .st0 {
        fill: #f3c716;
        stroke-width: 4.75px;
      }

      .st0, .st1 {
        stroke: #fbce3e;
        stroke-miterlimit: 10;
      }

      .st1 {
        fill: none;
        stroke-width: 5.94px;
      }
    </style>
  </defs>
  <polygon class="st1" points="101.22 110.05 74.85 110.05 61.68 87.61 74.85 65.16 101.22 65.16 114.39 87.61 101.22 110.05"/>
  <ellipse class="st1" cx="88.03" cy="85.54" rx="52.67" ry="51.8"/>
  <line class="st1" x1="10.4" y1="65.16" x2="99.04" y2="65.16"/>
  <ellipse class="st0" cx="10.4" cy="65.16" rx="5.4" ry="5.32"/>
  <line class="st1" x1="69.02" y1="10.31" x2="113.34" y2="85.79"/>
  <path class="st0" d="M71.73,14.91c-2.58,1.46-5.89.6-7.4-1.94s-.6-5.8,1.98-7.26,5.89-.6,7.4,1.94c1.51,2.54.6,5.8-1.98,7.26Z"/>
  <line class="st1" x1="30.05" y1="141.47" x2="74.36" y2="65.99"/>
  <path class="st0" d="M32.76,136.86c2.58,1.46,3.48,4.72,1.98,7.26-1.49,2.54-4.8,3.42-7.4,1.94-2.58-1.46-3.48-4.72-1.98-7.26s4.8-3.42,7.4-1.94Z"/>
  <line class="st1" x1="104.15" y1="164.69" x2="62.34" y2="87.83"/>
  <path class="st0" d="M101.61,160c2.63-1.39,5.91-.41,7.32,2.19s.41,5.82-2.22,7.19-5.91.41-7.32-2.19-.41-5.82,2.22-7.19Z"/>
  <line class="st1" x1="164.6" y1="110.05" x2="75.96" y2="110.05"/>
  <ellipse class="st0" cx="164.6" cy="110.05" rx="5.4" ry="5.32"/>
  <line class="st1" x1="148.47" y1="29.78" x2="104.15" y2="105.25"/>
  <path class="st0" d="M145.78,34.38c-2.58-1.46-3.48-4.72-1.98-7.26s4.8-3.42,7.4-1.94,3.48,4.72,1.98,7.26c-1.5,2.54-4.8,3.42-7.4,1.94Z"/>
</svg>